<?xml version="1.0" standalone="no"?>
<!DOCTYPE svg PUBLIC "-//W3C//DTD SVG 1.1//EN" "http://www.w3.org/Graphics/SVG/1.1/DTD/svg11.dtd">
<svg width="800" height="600" version="1.1" xmlns="http://www.w3.org/2000/svg">
<rect width="800" height="600" x="0" y="0" style="fill:rgb(238,238,238);stroke:none"/>
<rect width="800" height="600" x="0" y="0" style="fill:rgb(255,255,255);stroke:none"/>
<text x="2" y="566" fill="rgb(0,0,0)" font-family="Arial" font-size="12">0</text>
<text x="2" y="511" fill="rgb(0,0,0)" font-family="Arial" font-size="12">200000</text>
<text x="2" y="456" fill="rgb(0,0,0)" font-family="Arial" font-size="12">400000</text>
<text x="2" y="401" fill="rgb(0,0,0)" font-family="Arial" font-size="12">600000</text>
<text x="2" y="346" fill="rgb(0,0,0)" font-family="Arial" font-size="12">800000</text>
<text x="2" y="290" fill="rgb(0,0,0)" font-family="Arial" font-size="12">1000000</text>
<text x="2" y="235" fill="rgb(0,0,0)" font-family="Arial" font-size="12">1200000</text>
<text x="2" y="180" fill="rgb(0,0,0)" font-family="Arial" font-size="12">1400000</text>
<text x="2" y="125" fill="rgb(0,0,0)" font-family="Arial" font-size="12">1600000</text>
<text x="2" y="69" fill="rgb(0,0,0)" font-family="Arial" font-size="12">1800000</text>
<text x="318" y="30" fill="rgb(0,0,0)" font-family="Arial" font-size="12">GC distribution over all sequences</text>
<line x1="61" y1="560" x2="790" y2="560" stroke="rgb(0,0,0)" stroke-width="1"/>
<line x1="61" y1="560" x2="61" y2="40" stroke="rgb(0,0,0)" stroke-width="1"/>
<text x="334" y="595" fill="rgb(0,0,0)" font-family="Arial" font-size="12">Mean GC content (%)</text>
<text x="60" y="575" fill="rgb(0,0,0)" font-family="Arial" font-size="12">0</text>
<rect width="7" height="520" x="68" y="40" style="fill:rgb(230,230,230);stroke:none"/>
<text x="74" y="575" fill="rgb(0,0,0)" font-family="Arial" font-size="12">2</text>
<rect width="7" height="520" x="82" y="40" style="fill:rgb(230,230,230);stroke:none"/>
<text x="88" y="575" fill="rgb(0,0,0)" font-family="Arial" font-size="12">4</text>
<rect width="7" height="520" x="96" y="40" style="fill:rgb(230,230,230);stroke:none"/>
<text x="102" y="575" fill="rgb(0,0,0)" font-family="Arial" font-size="12">6</text>
<rect width="7" height="520" x="110" y="40" style="fill:rgb(230,230,230);stroke:none"/>
<text x="116" y="575" fill="rgb(0,0,0)" font-family="Arial" font-size="12">8</text>
<rect width="7" height="520" x="124" y="40" style="fill:rgb(230,230,230);stroke:none"/>
<rect width="7" height="520" x="138" y="40" style="fill:rgb(230,230,230);stroke:none"/>
<text x="133" y="575" fill="rgb(0,0,0)" font-family="Arial" font-size="12">11</text>
<rect width="7" height="520" x="152" y="40" style="fill:rgb(230,230,230);stroke:none"/>
<rect width="7" height="520" x="166" y="40" style="fill:rgb(230,230,230);stroke:none"/>
<text x="161" y="575" fill="rgb(0,0,0)" font-family="Arial" font-size="12">15</text>
<rect width="7" height="520" x="180" y="40" style="fill:rgb(230,230,230);stroke:none"/>
<rect width="7" height="520" x="194" y="40" style="fill:rgb(230,230,230);stroke:none"/>
<text x="189" y="575" fill="rgb(0,0,0)" font-family="Arial" font-size="12">19</text>
<rect width="7" height="520" x="208" y="40" style="fill:rgb(230,230,230);stroke:none"/>
<rect width="7" height="520" x="222" y="40" style="fill:rgb(230,230,230);stroke:none"/>
<text x="217" y="575" fill="rgb(0,0,0)" font-family="Arial" font-size="12">23</text>
<rect width="7" height="520" x="236" y="40" style="fill:rgb(230,230,230);stroke:none"/>
<rect width="7" height="520" x="250" y="40" style="fill:rgb(230,230,230);stroke:none"/>
<text x="245" y="575" fill="rgb(0,0,0)" font-family="Arial" font-size="12">27</text>
<rect width="7" height="520" x="264" y="40" style="fill:rgb(230,230,230);stroke:none"/>
<rect width="7" height="520" x="278" y="40" style="fill:rgb(230,230,230);stroke:none"/>
<text x="273" y="575" fill="rgb(0,0,0)" font-family="Arial" font-size="12">31</text>
<rect width="7" height="520" x="292" y="40" style="fill:rgb(230,230,230);stroke:none"/>
<rect width="7" height="520" x="306" y="40" style="fill:rgb(230,230,230);stroke:none"/>
<text x="301" y="575" fill="rgb(0,0,0)" font-family="Arial" font-size="12">35</text>
<rect width="7" height="520" x="320" y="40" style="fill:rgb(230,230,230);stroke:none"/>
<rect width="7" height="520" x="334" y="40" style="fill:rgb(230,230,230);stroke:none"/>
<text x="329" y="575" fill="rgb(0,0,0)" font-family="Arial" font-size="12">39</text>
<rect width="7" height="520" x="348" y="40" style="fill:rgb(230,230,230);stroke:none"/>
<rect width="7" height="520" x="362" y="40" style="fill:rgb(230,230,230);stroke:none"/>
<text x="357" y="575" fill="rgb(0,0,0)" font-family="Arial" font-size="12">43</text>
<rect width="7" height="520" x="376" y="40" style="fill:rgb(230,230,230);stroke:none"/>
<rect width="7" height="520" x="390" y="40" style="fill:rgb(230,230,230);stroke:none"/>
<text x="385" y="575" fill="rgb(0,0,0)" font-family="Arial" font-size="12">47</text>
<rect width="7" height="520" x="404" y="40" style="fill:rgb(230,230,230);stroke:none"/>
<rect width="7" height="520" x="418" y="40" style="fill:rgb(230,230,230);stroke:none"/>
<text x="413" y="575" fill="rgb(0,0,0)" font-family="Arial" font-size="12">51</text>
<rect width="7" height="520" x="432" y="40" style="fill:rgb(230,230,230);stroke:none"/>
<rect width="7" height="520" x="446" y="40" style="fill:rgb(230,230,230);stroke:none"/>
<text x="441" y="575" fill="rgb(0,0,0)" font-family="Arial" font-size="12">55</text>
<rect width="7" height="520" x="460" y="40" style="fill:rgb(230,230,230);stroke:none"/>
<rect width="7" height="520" x="474" y="40" style="fill:rgb(230,230,230);stroke:none"/>
<text x="469" y="575" fill="rgb(0,0,0)" font-family="Arial" font-size="12">59</text>
<rect width="7" height="520" x="488" y="40" style="fill:rgb(230,230,230);stroke:none"/>
<rect width="7" height="520" x="502" y="40" style="fill:rgb(230,230,230);stroke:none"/>
<text x="497" y="575" fill="rgb(0,0,0)" font-family="Arial" font-size="12">63</text>
<rect width="7" height="520" x="516" y="40" style="fill:rgb(230,230,230);stroke:none"/>
<rect width="7" height="520" x="530" y="40" style="fill:rgb(230,230,230);stroke:none"/>
<text x="525" y="575" fill="rgb(0,0,0)" font-family="Arial" font-size="12">67</text>
<rect width="7" height="520" x="544" y="40" style="fill:rgb(230,230,230);stroke:none"/>
<rect width="7" height="520" x="558" y="40" style="fill:rgb(230,230,230);stroke:none"/>
<text x="553" y="575" fill="rgb(0,0,0)" font-family="Arial" font-size="12">71</text>
<rect width="7" height="520" x="572" y="40" style="fill:rgb(230,230,230);stroke:none"/>
<rect width="7" height="520" x="586" y="40" style="fill:rgb(230,230,230);stroke:none"/>
<text x="581" y="575" fill="rgb(0,0,0)" font-family="Arial" font-size="12">75</text>
<rect width="7" height="520" x="600" y="40" style="fill:rgb(230,230,230);stroke:none"/>
<rect width="7" height="520" x="614" y="40" style="fill:rgb(230,230,230);stroke:none"/>
<text x="609" y="575" fill="rgb(0,0,0)" font-family="Arial" font-size="12">79</text>
<rect width="7" height="520" x="628" y="40" style="fill:rgb(230,230,230);stroke:none"/>
<rect width="7" height="520" x="642" y="40" style="fill:rgb(230,230,230);stroke:none"/>
<text x="637" y="575" fill="rgb(0,0,0)" font-family="Arial" font-size="12">83</text>
<rect width="7" height="520" x="656" y="40" style="fill:rgb(230,230,230);stroke:none"/>
<rect width="7" height="520" x="670" y="40" style="fill:rgb(230,230,230);stroke:none"/>
<text x="665" y="575" fill="rgb(0,0,0)" font-family="Arial" font-size="12">87</text>
<rect width="7" height="520" x="684" y="40" style="fill:rgb(230,230,230);stroke:none"/>
<rect width="7" height="520" x="698" y="40" style="fill:rgb(230,230,230);stroke:none"/>
<text x="693" y="575" fill="rgb(0,0,0)" font-family="Arial" font-size="12">91</text>
<rect width="7" height="520" x="712" y="40" style="fill:rgb(230,230,230);stroke:none"/>
<rect width="7" height="520" x="726" y="40" style="fill:rgb(230,230,230);stroke:none"/>
<text x="721" y="575" fill="rgb(0,0,0)" font-family="Arial" font-size="12">95</text>
<rect width="7" height="520" x="740" y="40" style="fill:rgb(230,230,230);stroke:none"/>
<rect width="7" height="520" x="754" y="40" style="fill:rgb(230,230,230);stroke:none"/>
<text x="749" y="575" fill="rgb(0,0,0)" font-family="Arial" font-size="12">99</text>
<line x1="61" y1="560" x2="790" y2="560" stroke="rgb(180,180,180)" stroke-width="1"/>
<line x1="61" y1="505" x2="790" y2="505" stroke="rgb(180,180,180)" stroke-width="1"/>
<line x1="61" y1="450" x2="790" y2="450" stroke="rgb(180,180,180)" stroke-width="1"/>
<line x1="61" y1="395" x2="790" y2="395" stroke="rgb(180,180,180)" stroke-width="1"/>
<line x1="61" y1="340" x2="790" y2="340" stroke="rgb(180,180,180)" stroke-width="1"/>
<line x1="61" y1="284" x2="790" y2="284" stroke="rgb(180,180,180)" stroke-width="1"/>
<line x1="61" y1="229" x2="790" y2="229" stroke="rgb(180,180,180)" stroke-width="1"/>
<line x1="61" y1="174" x2="790" y2="174" stroke="rgb(180,180,180)" stroke-width="1"/>
<line x1="61" y1="119" x2="790" y2="119" stroke="rgb(180,180,180)" stroke-width="1"/>
<line x1="61" y1="63" x2="790" y2="63" stroke="rgb(180,180,180)" stroke-width="1"/>
<line x1="64" y1="559" x2="71" y2="559" stroke="rgb(136,34,85)" stroke-width="1"/>
<line x1="71" y1="559" x2="78" y2="560" stroke="rgb(136,34,85)" stroke-width="1"/>
<line x1="78" y1="560" x2="85" y2="560" stroke="rgb(136,34,85)" stroke-width="1"/>
<line x1="85" y1="560" x2="92" y2="560" stroke="rgb(136,34,85)" stroke-width="1"/>
<line x1="92" y1="560" x2="99" y2="560" stroke="rgb(136,34,85)" stroke-width="1"/>
<line x1="99" y1="560" x2="106" y2="560" stroke="rgb(136,34,85)" stroke-width="1"/>
<line x1="106" y1="560" x2="113" y2="560" stroke="rgb(136,34,85)" stroke-width="1"/>
<line x1="113" y1="560" x2="120" y2="560" stroke="rgb(136,34,85)" stroke-width="1"/>
<line x1="120" y1="560" x2="127" y2="560" stroke="rgb(136,34,85)" stroke-width="1"/>
<line x1="127" y1="560" x2="134" y2="560" stroke="rgb(136,34,85)" stroke-width="1"/>
<line x1="134" y1="560" x2="141" y2="559" stroke="rgb(136,34,85)" stroke-width="1"/>
<line x1="141" y1="559" x2="148" y2="559" stroke="rgb(136,34,85)" stroke-width="1"/>
<line x1="148" y1="559" x2="155" y2="559" stroke="rgb(136,34,85)" stroke-width="1"/>
<line x1="155" y1="559" x2="162" y2="559" stroke="rgb(136,34,85)" stroke-width="1"/>
<line x1="162" y1="559" x2="169" y2="558" stroke="rgb(136,34,85)" stroke-width="1"/>
<line x1="169" y1="558" x2="176" y2="558" stroke="rgb(136,34,85)" stroke-width="1"/>
<line x1="176" y1="558" x2="183" y2="557" stroke="rgb(136,34,85)" stroke-width="1"/>
<line x1="183" y1="557" x2="190" y2="556" stroke="rgb(136,34,85)" stroke-width="1"/>
<line x1="190" y1="556" x2="197" y2="554" stroke="rgb(136,34,85)" stroke-width="1"/>
<line x1="197" y1="554" x2="204" y2="552" stroke="rgb(136,34,85)" stroke-width="1"/>
<line x1="204" y1="552" x2="211" y2="549" stroke="rgb(136,34,85)" stroke-width="1"/>
<line x1="211" y1="549" x2="218" y2="544" stroke="rgb(136,34,85)" stroke-width="1"/>
<line x1="218" y1="544" x2="225" y2="539" stroke="rgb(136,34,85)" stroke-width="1"/>
<line x1="225" y1="539" x2="232" y2="531" stroke="rgb(136,34,85)" stroke-width="1"/>
<line x1="232" y1="531" x2="239" y2="522" stroke="rgb(136,34,85)" stroke-width="1"/>
<line x1="239" y1="522" x2="246" y2="511" stroke="rgb(136,34,85)" stroke-width="1"/>
<line x1="246" y1="511" x2="253" y2="497" stroke="rgb(136,34,85)" stroke-width="1"/>
<line x1="253" y1="497" x2="260" y2="480" stroke="rgb(136,34,85)" stroke-width="1"/>
<line x1="260" y1="480" x2="267" y2="460" stroke="rgb(136,34,85)" stroke-width="1"/>
<line x1="267" y1="460" x2="274" y2="440" stroke="rgb(136,34,85)" stroke-width="1"/>
<line x1="274" y1="440" x2="281" y2="422" stroke="rgb(136,34,85)" stroke-width="1"/>
<line x1="281" y1="422" x2="288" y2="405" stroke="rgb(136,34,85)" stroke-width="1"/>
<line x1="288" y1="405" x2="295" y2="389" stroke="rgb(136,34,85)" stroke-width="1"/>
<line x1="295" y1="389" x2="302" y2="371" stroke="rgb(136,34,85)" stroke-width="1"/>
<line x1="302" y1="371" x2="309" y2="346" stroke="rgb(136,34,85)" stroke-width="1"/>
<line x1="309" y1="346" x2="316" y2="324" stroke="rgb(136,34,85)" stroke-width="1"/>
<line x1="316" y1="324" x2="323" y2="305" stroke="rgb(136,34,85)" stroke-width="1"/>
<line x1="323" y1="305" x2="330" y2="289" stroke="rgb(136,34,85)" stroke-width="1"/>
<line x1="330" y1="289" x2="337" y2="271" stroke="rgb(136,34,85)" stroke-width="1"/>
<line x1="337" y1="271" x2="344" y2="222" stroke="rgb(136,34,85)" stroke-width="1"/>
<line x1="344" y1="222" x2="351" y2="163" stroke="rgb(136,34,85)" stroke-width="1"/>
<line x1="351" y1="163" x2="358" y2="121" stroke="rgb(136,34,85)" stroke-width="1"/>
<line x1="358" y1="121" x2="365" y2="72" stroke="rgb(136,34,85)" stroke-width="1"/>
<line x1="365" y1="72" x2="372" y2="54" stroke="rgb(136,34,85)" stroke-width="1"/>
<line x1="372" y1="54" x2="379" y2="70" stroke="rgb(136,34,85)" stroke-width="1"/>
<line x1="379" y1="70" x2="386" y2="69" stroke="rgb(136,34,85)" stroke-width="1"/>
<line x1="386" y1="69" x2="393" y2="43" stroke="rgb(136,34,85)" stroke-width="1"/>
<line x1="393" y1="43" x2="400" y2="40" stroke="rgb(136,34,85)" stroke-width="1"/>
<line x1="400" y1="40" x2="407" y2="76" stroke="rgb(136,34,85)" stroke-width="1"/>
<line x1="407" y1="76" x2="414" y2="85" stroke="rgb(136,34,85)" stroke-width="1"/>
<line x1="414" y1="85" x2="421" y2="89" stroke="rgb(136,34,85)" stroke-width="1"/>
<line x1="421" y1="89" x2="428" y2="116" stroke="rgb(136,34,85)" stroke-width="1"/>
<line x1="428" y1="116" x2="435" y2="147" stroke="rgb(136,34,85)" stroke-width="1"/>
<line x1="435" y1="147" x2="442" y2="181" stroke="rgb(136,34,85)" stroke-width="1"/>
<line x1="442" y1="181" x2="449" y2="217" stroke="rgb(136,34,85)" stroke-width="1"/>
<line x1="449" y1="217" x2="456" y2="250" stroke="rgb(136,34,85)" stroke-width="1"/>
<line x1="456" y1="250" x2="463" y2="281" stroke="rgb(136,34,85)" stroke-width="1"/>
<line x1="463" y1="281" x2="470" y2="311" stroke="rgb(136,34,85)" stroke-width="1"/>
<line x1="470" y1="311" x2="477" y2="340" stroke="rgb(136,34,85)" stroke-width="1"/>
<line x1="477" y1="340" x2="484" y2="364" stroke="rgb(136,34,85)" stroke-width="1"/>
<line x1="484" y1="364" x2="491" y2="390" stroke="rgb(136,34,85)" stroke-width="1"/>
<line x1="491" y1="390" x2="498" y2="413" stroke="rgb(136,34,85)" stroke-width="1"/>
<line x1="498" y1="413" x2="505" y2="428" stroke="rgb(136,34,85)" stroke-width="1"/>
<line x1="505" y1="428" x2="512" y2="454" stroke="rgb(136,34,85)" stroke-width="1"/>
<line x1="512" y1="454" x2="519" y2="477" stroke="rgb(136,34,85)" stroke-width="1"/>
<line x1="519" y1="477" x2="526" y2="488" stroke="rgb(136,34,85)" stroke-width="1"/>
<line x1="526" y1="488" x2="533" y2="499" stroke="rgb(136,34,85)" stroke-width="1"/>
<line x1="533" y1="499" x2="540" y2="511" stroke="rgb(136,34,85)" stroke-width="1"/>
<line x1="540" y1="511" x2="547" y2="519" stroke="rgb(136,34,85)" stroke-width="1"/>
<line x1="547" y1="519" x2="554" y2="522" stroke="rgb(136,34,85)" stroke-width="1"/>
<line x1="554" y1="522" x2="561" y2="527" stroke="rgb(136,34,85)" stroke-width="1"/>
<line x1="561" y1="527" x2="568" y2="535" stroke="rgb(136,34,85)" stroke-width="1"/>
<line x1="568" y1="535" x2="575" y2="541" stroke="rgb(136,34,85)" stroke-width="1"/>
<line x1="575" y1="541" x2="582" y2="545" stroke="rgb(136,34,85)" stroke-width="1"/>
<line x1="582" y1="545" x2="589" y2="550" stroke="rgb(136,34,85)" stroke-width="1"/>
<line x1="589" y1="550" x2="596" y2="552" stroke="rgb(136,34,85)" stroke-width="1"/>
<line x1="596" y1="552" x2="603" y2="555" stroke="rgb(136,34,85)" stroke-width="1"/>
<line x1="603" y1="555" x2="610" y2="556" stroke="rgb(136,34,85)" stroke-width="1"/>
<line x1="610" y1="556" x2="617" y2="555" stroke="rgb(136,34,85)" stroke-width="1"/>
<line x1="617" y1="555" x2="624" y2="555" stroke="rgb(136,34,85)" stroke-width="1"/>
<line x1="624" y1="555" x2="631" y2="557" stroke="rgb(136,34,85)" stroke-width="1"/>
<line x1="631" y1="557" x2="638" y2="558" stroke="rgb(136,34,85)" stroke-width="1"/>
<line x1="638" y1="558" x2="645" y2="559" stroke="rgb(136,34,85)" stroke-width="1"/>
<line x1="645" y1="559" x2="652" y2="559" stroke="rgb(136,34,85)" stroke-width="1"/>
<line x1="652" y1="559" x2="659" y2="560" stroke="rgb(136,34,85)" stroke-width="1"/>
<line x1="659" y1="560" x2="666" y2="560" stroke="rgb(136,34,85)" stroke-width="1"/>
<line x1="666" y1="560" x2="673" y2="560" stroke="rgb(136,34,85)" stroke-width="1"/>
<line x1="673" y1="560" x2="680" y2="560" stroke="rgb(136,34,85)" stroke-width="1"/>
<line x1="680" y1="560" x2="687" y2="560" stroke="rgb(136,34,85)" stroke-width="1"/>
<line x1="687" y1="560" x2="694" y2="560" stroke="rgb(136,34,85)" stroke-width="1"/>
<line x1="694" y1="560" x2="701" y2="560" stroke="rgb(136,34,85)" stroke-width="1"/>
<line x1="701" y1="560" x2="708" y2="560" stroke="rgb(136,34,85)" stroke-width="1"/>
<line x1="708" y1="560" x2="715" y2="560" stroke="rgb(136,34,85)" stroke-width="1"/>
<line x1="715" y1="560" x2="722" y2="560" stroke="rgb(136,34,85)" stroke-width="1"/>
<line x1="722" y1="560" x2="729" y2="560" stroke="rgb(136,34,85)" stroke-width="1"/>
<line x1="729" y1="560" x2="736" y2="560" stroke="rgb(136,34,85)" stroke-width="1"/>
<line x1="736" y1="560" x2="743" y2="560" stroke="rgb(136,34,85)" stroke-width="1"/>
<line x1="743" y1="560" x2="750" y2="559" stroke="rgb(136,34,85)" stroke-width="1"/>
<line x1="750" y1="559" x2="757" y2="559" stroke="rgb(136,34,85)" stroke-width="1"/>
<line x1="757" y1="559" x2="764" y2="551" stroke="rgb(136,34,85)" stroke-width="1"/>
<line x1="64" y1="560" x2="71" y2="560" stroke="rgb(51,34,136)" stroke-width="1"/>
<line x1="71" y1="560" x2="78" y2="560" stroke="rgb(51,34,136)" stroke-width="1"/>
<line x1="78" y1="560" x2="85" y2="560" stroke="rgb(51,34,136)" stroke-width="1"/>
<line x1="85" y1="560" x2="92" y2="560" stroke="rgb(51,34,136)" stroke-width="1"/>
<line x1="92" y1="560" x2="99" y2="560" stroke="rgb(51,34,136)" stroke-width="1"/>
<line x1="99" y1="560" x2="106" y2="560" stroke="rgb(51,34,136)" stroke-width="1"/>
<line x1="106" y1="560" x2="113" y2="560" stroke="rgb(51,34,136)" stroke-width="1"/>
<line x1="113" y1="560" x2="120" y2="560" stroke="rgb(51,34,136)" stroke-width="1"/>
<line x1="120" y1="560" x2="127" y2="560" stroke="rgb(51,34,136)" stroke-width="1"/>
<line x1="127" y1="560" x2="134" y2="560" stroke="rgb(51,34,136)" stroke-width="1"/>
<line x1="134" y1="560" x2="141" y2="560" stroke="rgb(51,34,136)" stroke-width="1"/>
<line x1="141" y1="560" x2="148" y2="559" stroke="rgb(51,34,136)" stroke-width="1"/>
<line x1="148" y1="559" x2="155" y2="559" stroke="rgb(51,34,136)" stroke-width="1"/>
<line x1="155" y1="559" x2="162" y2="558" stroke="rgb(51,34,136)" stroke-width="1"/>
<line x1="162" y1="558" x2="169" y2="557" stroke="rgb(51,34,136)" stroke-width="1"/>
<line x1="169" y1="557" x2="176" y2="556" stroke="rgb(51,34,136)" stroke-width="1"/>
<line x1="176" y1="556" x2="183" y2="555" stroke="rgb(51,34,136)" stroke-width="1"/>
<line x1="183" y1="555" x2="190" y2="553" stroke="rgb(51,34,136)" stroke-width="1"/>
<line x1="190" y1="553" x2="197" y2="550" stroke="rgb(51,34,136)" stroke-width="1"/>
<line x1="197" y1="550" x2="204" y2="547" stroke="rgb(51,34,136)" stroke-width="1"/>
<line x1="204" y1="547" x2="211" y2="543" stroke="rgb(51,34,136)" stroke-width="1"/>
<line x1="211" y1="543" x2="218" y2="538" stroke="rgb(51,34,136)" stroke-width="1"/>
<line x1="218" y1="538" x2="225" y2="532" stroke="rgb(51,34,136)" stroke-width="1"/>
<line x1="225" y1="532" x2="232" y2="525" stroke="rgb(51,34,136)" stroke-width="1"/>
<line x1="232" y1="525" x2="239" y2="516" stroke="rgb(51,34,136)" stroke-width="1"/>
<line x1="239" y1="516" x2="246" y2="506" stroke="rgb(51,34,136)" stroke-width="1"/>
<line x1="246" y1="506" x2="253" y2="493" stroke="rgb(51,34,136)" stroke-width="1"/>
<line x1="253" y1="493" x2="260" y2="479" stroke="rgb(51,34,136)" stroke-width="1"/>
<line x1="260" y1="479" x2="267" y2="463" stroke="rgb(51,34,136)" stroke-width="1"/>
<line x1="267" y1="463" x2="274" y2="445" stroke="rgb(51,34,136)" stroke-width="1"/>
<line x1="274" y1="445" x2="281" y2="425" stroke="rgb(51,34,136)" stroke-width="1"/>
<line x1="281" y1="425" x2="288" y2="403" stroke="rgb(51,34,136)" stroke-width="1"/>
<line x1="288" y1="403" x2="295" y2="379" stroke="rgb(51,34,136)" stroke-width="1"/>
<line x1="295" y1="379" x2="302" y2="353" stroke="rgb(51,34,136)" stroke-width="1"/>
<line x1="302" y1="353" x2="309" y2="326" stroke="rgb(51,34,136)" stroke-width="1"/>
<line x1="309" y1="326" x2="316" y2="298" stroke="rgb(51,34,136)" stroke-width="1"/>
<line x1="316" y1="298" x2="323" y2="270" stroke="rgb(51,34,136)" stroke-width="1"/>
<line x1="323" y1="270" x2="330" y2="241" stroke="rgb(51,34,136)" stroke-width="1"/>
<line x1="330" y1="241" x2="337" y2="214" stroke="rgb(51,34,136)" stroke-width="1"/>
<line x1="337" y1="214" x2="344" y2="187" stroke="rgb(51,34,136)" stroke-width="1"/>
<line x1="344" y1="187" x2="351" y2="163" stroke="rgb(51,34,136)" stroke-width="1"/>
<line x1="351" y1="163" x2="358" y2="141" stroke="rgb(51,34,136)" stroke-width="1"/>
<line x1="358" y1="141" x2="365" y2="122" stroke="rgb(51,34,136)" stroke-width="1"/>
<line x1="365" y1="122" x2="372" y2="107" stroke="rgb(51,34,136)" stroke-width="1"/>
<line x1="372" y1="107" x2="379" y2="95" stroke="rgb(51,34,136)" stroke-width="1"/>
<line x1="379" y1="95" x2="386" y2="88" stroke="rgb(51,34,136)" stroke-width="1"/>
<line x1="386" y1="88" x2="393" y2="86" stroke="rgb(51,34,136)" stroke-width="1"/>
<line x1="393" y1="86" x2="400" y2="88" stroke="rgb(51,34,136)" stroke-width="1"/>
<line x1="400" y1="88" x2="407" y2="95" stroke="rgb(51,34,136)" stroke-width="1"/>
<line x1="407" y1="95" x2="414" y2="107" stroke="rgb(51,34,136)" stroke-width="1"/>
<line x1="414" y1="107" x2="421" y2="122" stroke="rgb(51,34,136)" stroke-width="1"/>
<line x1="421" y1="122" x2="428" y2="141" stroke="rgb(51,34,136)" stroke-width="1"/>
<line x1="428" y1="141" x2="435" y2="163" stroke="rgb(51,34,136)" stroke-width="1"/>
<line x1="435" y1="163" x2="442" y2="187" stroke="rgb(51,34,136)" stroke-width="1"/>
<line x1="442" y1="187" x2="449" y2="214" stroke="rgb(51,34,136)" stroke-width="1"/>
<line x1="449" y1="214" x2="456" y2="241" stroke="rgb(51,34,136)" stroke-width="1"/>
<line x1="456" y1="241" x2="463" y2="270" stroke="rgb(51,34,136)" stroke-width="1"/>
<line x1="463" y1="270" x2="470" y2="298" stroke="rgb(51,34,136)" stroke-width="1"/>
<line x1="470" y1="298" x2="477" y2="326" stroke="rgb(51,34,136)" stroke-width="1"/>
<line x1="477" y1="326" x2="484" y2="353" stroke="rgb(51,34,136)" stroke-width="1"/>
<line x1="484" y1="353" x2="491" y2="379" stroke="rgb(51,34,136)" stroke-width="1"/>
<line x1="491" y1="379" x2="498" y2="403" stroke="rgb(51,34,136)" stroke-width="1"/>
<line x1="498" y1="403" x2="505" y2="425" stroke="rgb(51,34,136)" stroke-width="1"/>
<line x1="505" y1="425" x2="512" y2="445" stroke="rgb(51,34,136)" stroke-width="1"/>
<line x1="512" y1="445" x2="519" y2="463" stroke="rgb(51,34,136)" stroke-width="1"/>
<line x1="519" y1="463" x2="526" y2="479" stroke="rgb(51,34,136)" stroke-width="1"/>
<line x1="526" y1="479" x2="533" y2="493" stroke="rgb(51,34,136)" stroke-width="1"/>
<line x1="533" y1="493" x2="540" y2="506" stroke="rgb(51,34,136)" stroke-width="1"/>
<line x1="540" y1="506" x2="547" y2="516" stroke="rgb(51,34,136)" stroke-width="1"/>
<line x1="547" y1="516" x2="554" y2="525" stroke="rgb(51,34,136)" stroke-width="1"/>
<line x1="554" y1="525" x2="561" y2="532" stroke="rgb(51,34,136)" stroke-width="1"/>
<line x1="561" y1="532" x2="568" y2="538" stroke="rgb(51,34,136)" stroke-width="1"/>
<line x1="568" y1="538" x2="575" y2="543" stroke="rgb(51,34,136)" stroke-width="1"/>
<line x1="575" y1="543" x2="582" y2="547" stroke="rgb(51,34,136)" stroke-width="1"/>
<line x1="582" y1="547" x2="589" y2="550" stroke="rgb(51,34,136)" stroke-width="1"/>
<line x1="589" y1="550" x2="596" y2="553" stroke="rgb(51,34,136)" stroke-width="1"/>
<line x1="596" y1="553" x2="603" y2="555" stroke="rgb(51,34,136)" stroke-width="1"/>
<line x1="603" y1="555" x2="610" y2="556" stroke="rgb(51,34,136)" stroke-width="1"/>
<line x1="610" y1="556" x2="617" y2="557" stroke="rgb(51,34,136)" stroke-width="1"/>
<line x1="617" y1="557" x2="624" y2="558" stroke="rgb(51,34,136)" stroke-width="1"/>
<line x1="624" y1="558" x2="631" y2="559" stroke="rgb(51,34,136)" stroke-width="1"/>
<line x1="631" y1="559" x2="638" y2="559" stroke="rgb(51,34,136)" stroke-width="1"/>
<line x1="638" y1="559" x2="645" y2="560" stroke="rgb(51,34,136)" stroke-width="1"/>
<line x1="645" y1="560" x2="652" y2="560" stroke="rgb(51,34,136)" stroke-width="1"/>
<line x1="652" y1="560" x2="659" y2="560" stroke="rgb(51,34,136)" stroke-width="1"/>
<line x1="659" y1="560" x2="666" y2="560" stroke="rgb(51,34,136)" stroke-width="1"/>
<line x1="666" y1="560" x2="673" y2="560" stroke="rgb(51,34,136)" stroke-width="1"/>
<line x1="673" y1="560" x2="680" y2="560" stroke="rgb(51,34,136)" stroke-width="1"/>
<line x1="680" y1="560" x2="687" y2="560" stroke="rgb(51,34,136)" stroke-width="1"/>
<line x1="687" y1="560" x2="694" y2="560" stroke="rgb(51,34,136)" stroke-width="1"/>
<line x1="694" y1="560" x2="701" y2="560" stroke="rgb(51,34,136)" stroke-width="1"/>
<line x1="701" y1="560" x2="708" y2="560" stroke="rgb(51,34,136)" stroke-width="1"/>
<line x1="708" y1="560" x2="715" y2="560" stroke="rgb(51,34,136)" stroke-width="1"/>
<line x1="715" y1="560" x2="722" y2="560" stroke="rgb(51,34,136)" stroke-width="1"/>
<line x1="722" y1="560" x2="729" y2="560" stroke="rgb(51,34,136)" stroke-width="1"/>
<line x1="729" y1="560" x2="736" y2="560" stroke="rgb(51,34,136)" stroke-width="1"/>
<line x1="736" y1="560" x2="743" y2="560" stroke="rgb(51,34,136)" stroke-width="1"/>
<line x1="743" y1="560" x2="750" y2="560" stroke="rgb(51,34,136)" stroke-width="1"/>
<line x1="750" y1="560" x2="757" y2="560" stroke="rgb(51,34,136)" stroke-width="1"/>
<line x1="757" y1="560" x2="764" y2="560" stroke="rgb(51,34,136)" stroke-width="1"/>
<rect width="174" height="43" x="616" y="40" style="fill:rgb(255,255,255);stroke:none"/>
<rect width="174" height="43" x="616" y="40" rx="0" ry="0" style="fill:none;stroke-width:1;stroke:rgb(192,192,192)"/>
<text x="619" y="55" fill="rgb(136,34,85)" font-family="Arial" font-size="12" font-weight="bold">GC count per read</text>
<text x="619" y="75" fill="rgb(51,34,136)" font-family="Arial" font-size="12" font-weight="bold">Theoretical Distribution</text>
</svg>
