<?xml version="1.0" standalone="no"?>
<!DOCTYPE svg PUBLIC "-//W3C//DTD SVG 1.1//EN" "http://www.w3.org/Graphics/SVG/1.1/DTD/svg11.dtd">
<svg width="800" height="600" version="1.1" xmlns="http://www.w3.org/2000/svg">
<rect width="800" height="600" x="0" y="0" style="fill:rgb(238,238,238);stroke:none"/>
<rect width="800" height="600" x="0" y="0" style="fill:rgb(255,255,255);stroke:none"/>
<text x="2" y="566" fill="rgb(0,0,0)" font-family="Arial" font-size="12">0</text>
<text x="2" y="538" fill="rgb(0,0,0)" font-family="Arial" font-size="12">2</text>
<text x="2" y="510" fill="rgb(0,0,0)" font-family="Arial" font-size="12">4</text>
<text x="2" y="482" fill="rgb(0,0,0)" font-family="Arial" font-size="12">6</text>
<text x="2" y="454" fill="rgb(0,0,0)" font-family="Arial" font-size="12">8</text>
<text x="2" y="426" fill="rgb(0,0,0)" font-family="Arial" font-size="12">10</text>
<text x="2" y="398" fill="rgb(0,0,0)" font-family="Arial" font-size="12">12</text>
<text x="2" y="370" fill="rgb(0,0,0)" font-family="Arial" font-size="12">14</text>
<text x="2" y="342" fill="rgb(0,0,0)" font-family="Arial" font-size="12">16</text>
<text x="2" y="314" fill="rgb(0,0,0)" font-family="Arial" font-size="12">18</text>
<text x="2" y="285" fill="rgb(0,0,0)" font-family="Arial" font-size="12">20</text>
<text x="2" y="257" fill="rgb(0,0,0)" font-family="Arial" font-size="12">22</text>
<text x="2" y="229" fill="rgb(0,0,0)" font-family="Arial" font-size="12">24</text>
<text x="2" y="201" fill="rgb(0,0,0)" font-family="Arial" font-size="12">26</text>
<text x="2" y="173" fill="rgb(0,0,0)" font-family="Arial" font-size="12">28</text>
<text x="2" y="145" fill="rgb(0,0,0)" font-family="Arial" font-size="12">30</text>
<text x="2" y="117" fill="rgb(0,0,0)" font-family="Arial" font-size="12">32</text>
<text x="2" y="89" fill="rgb(0,0,0)" font-family="Arial" font-size="12">34</text>
<text x="2" y="61" fill="rgb(0,0,0)" font-family="Arial" font-size="12">36</text>
<text x="206" y="30" fill="rgb(0,0,0)" font-family="Arial" font-size="12">Quality scores across all bases (Sanger / Illumina 1.9 encoding)</text>
<rect width="21" height="281" x="21" y="279" style="fill:rgb(230,175,175);stroke:none"/>
<rect width="21" height="112" x="21" y="167" style="fill:rgb(230,215,175);stroke:none"/>
<rect width="21" height="127" x="21" y="40" style="fill:rgb(175,230,175);stroke:none"/>
<text x="27" y="575" fill="rgb(0,0,0)" font-family="Arial" font-size="12">1</text>
<rect width="21" height="281" x="42" y="279" style="fill:rgb(230,195,195);stroke:none"/>
<rect width="21" height="112" x="42" y="167" style="fill:rgb(230,220,195);stroke:none"/>
<rect width="21" height="127" x="42" y="40" style="fill:rgb(195,230,195);stroke:none"/>
<text x="48" y="575" fill="rgb(0,0,0)" font-family="Arial" font-size="12">2</text>
<rect width="21" height="281" x="63" y="279" style="fill:rgb(230,175,175);stroke:none"/>
<rect width="21" height="112" x="63" y="167" style="fill:rgb(230,215,175);stroke:none"/>
<rect width="21" height="127" x="63" y="40" style="fill:rgb(175,230,175);stroke:none"/>
<text x="69" y="575" fill="rgb(0,0,0)" font-family="Arial" font-size="12">3</text>
<rect width="21" height="281" x="84" y="279" style="fill:rgb(230,195,195);stroke:none"/>
<rect width="21" height="112" x="84" y="167" style="fill:rgb(230,220,195);stroke:none"/>
<rect width="21" height="127" x="84" y="40" style="fill:rgb(195,230,195);stroke:none"/>
<text x="90" y="575" fill="rgb(0,0,0)" font-family="Arial" font-size="12">4</text>
<rect width="21" height="281" x="105" y="279" style="fill:rgb(230,175,175);stroke:none"/>
<rect width="21" height="112" x="105" y="167" style="fill:rgb(230,215,175);stroke:none"/>
<rect width="21" height="127" x="105" y="40" style="fill:rgb(175,230,175);stroke:none"/>
<text x="111" y="575" fill="rgb(0,0,0)" font-family="Arial" font-size="12">5</text>
<rect width="21" height="281" x="126" y="279" style="fill:rgb(230,195,195);stroke:none"/>
<rect width="21" height="112" x="126" y="167" style="fill:rgb(230,220,195);stroke:none"/>
<rect width="21" height="127" x="126" y="40" style="fill:rgb(195,230,195);stroke:none"/>
<text x="132" y="575" fill="rgb(0,0,0)" font-family="Arial" font-size="12">6</text>
<rect width="21" height="281" x="147" y="279" style="fill:rgb(230,175,175);stroke:none"/>
<rect width="21" height="112" x="147" y="167" style="fill:rgb(230,215,175);stroke:none"/>
<rect width="21" height="127" x="147" y="40" style="fill:rgb(175,230,175);stroke:none"/>
<text x="153" y="575" fill="rgb(0,0,0)" font-family="Arial" font-size="12">7</text>
<rect width="21" height="281" x="168" y="279" style="fill:rgb(230,195,195);stroke:none"/>
<rect width="21" height="112" x="168" y="167" style="fill:rgb(230,220,195);stroke:none"/>
<rect width="21" height="127" x="168" y="40" style="fill:rgb(195,230,195);stroke:none"/>
<text x="174" y="575" fill="rgb(0,0,0)" font-family="Arial" font-size="12">8</text>
<rect width="21" height="281" x="189" y="279" style="fill:rgb(230,175,175);stroke:none"/>
<rect width="21" height="112" x="189" y="167" style="fill:rgb(230,215,175);stroke:none"/>
<rect width="21" height="127" x="189" y="40" style="fill:rgb(175,230,175);stroke:none"/>
<text x="195" y="575" fill="rgb(0,0,0)" font-family="Arial" font-size="12">9</text>
<rect width="21" height="281" x="210" y="279" style="fill:rgb(230,195,195);stroke:none"/>
<rect width="21" height="112" x="210" y="167" style="fill:rgb(230,220,195);stroke:none"/>
<rect width="21" height="127" x="210" y="40" style="fill:rgb(195,230,195);stroke:none"/>
<rect width="21" height="281" x="231" y="279" style="fill:rgb(230,175,175);stroke:none"/>
<rect width="21" height="112" x="231" y="167" style="fill:rgb(230,215,175);stroke:none"/>
<rect width="21" height="127" x="231" y="40" style="fill:rgb(175,230,175);stroke:none"/>
<text x="223" y="575" fill="rgb(0,0,0)" font-family="Arial" font-size="12">15-19</text>
<rect width="21" height="281" x="252" y="279" style="fill:rgb(230,195,195);stroke:none"/>
<rect width="21" height="112" x="252" y="167" style="fill:rgb(230,220,195);stroke:none"/>
<rect width="21" height="127" x="252" y="40" style="fill:rgb(195,230,195);stroke:none"/>
<rect width="21" height="281" x="273" y="279" style="fill:rgb(230,175,175);stroke:none"/>
<rect width="21" height="112" x="273" y="167" style="fill:rgb(230,215,175);stroke:none"/>
<rect width="21" height="127" x="273" y="40" style="fill:rgb(175,230,175);stroke:none"/>
<text x="265" y="575" fill="rgb(0,0,0)" font-family="Arial" font-size="12">25-29</text>
<rect width="21" height="281" x="294" y="279" style="fill:rgb(230,195,195);stroke:none"/>
<rect width="21" height="112" x="294" y="167" style="fill:rgb(230,220,195);stroke:none"/>
<rect width="21" height="127" x="294" y="40" style="fill:rgb(195,230,195);stroke:none"/>
<rect width="21" height="281" x="315" y="279" style="fill:rgb(230,175,175);stroke:none"/>
<rect width="21" height="112" x="315" y="167" style="fill:rgb(230,215,175);stroke:none"/>
<rect width="21" height="127" x="315" y="40" style="fill:rgb(175,230,175);stroke:none"/>
<text x="307" y="575" fill="rgb(0,0,0)" font-family="Arial" font-size="12">35-39</text>
<rect width="21" height="281" x="336" y="279" style="fill:rgb(230,195,195);stroke:none"/>
<rect width="21" height="112" x="336" y="167" style="fill:rgb(230,220,195);stroke:none"/>
<rect width="21" height="127" x="336" y="40" style="fill:rgb(195,230,195);stroke:none"/>
<rect width="21" height="281" x="357" y="279" style="fill:rgb(230,175,175);stroke:none"/>
<rect width="21" height="112" x="357" y="167" style="fill:rgb(230,215,175);stroke:none"/>
<rect width="21" height="127" x="357" y="40" style="fill:rgb(175,230,175);stroke:none"/>
<text x="349" y="575" fill="rgb(0,0,0)" font-family="Arial" font-size="12">45-49</text>
<rect width="21" height="281" x="378" y="279" style="fill:rgb(230,195,195);stroke:none"/>
<rect width="21" height="112" x="378" y="167" style="fill:rgb(230,220,195);stroke:none"/>
<rect width="21" height="127" x="378" y="40" style="fill:rgb(195,230,195);stroke:none"/>
<rect width="21" height="281" x="399" y="279" style="fill:rgb(230,175,175);stroke:none"/>
<rect width="21" height="112" x="399" y="167" style="fill:rgb(230,215,175);stroke:none"/>
<rect width="21" height="127" x="399" y="40" style="fill:rgb(175,230,175);stroke:none"/>
<text x="391" y="575" fill="rgb(0,0,0)" font-family="Arial" font-size="12">55-59</text>
<rect width="21" height="281" x="420" y="279" style="fill:rgb(230,195,195);stroke:none"/>
<rect width="21" height="112" x="420" y="167" style="fill:rgb(230,220,195);stroke:none"/>
<rect width="21" height="127" x="420" y="40" style="fill:rgb(195,230,195);stroke:none"/>
<rect width="21" height="281" x="441" y="279" style="fill:rgb(230,175,175);stroke:none"/>
<rect width="21" height="112" x="441" y="167" style="fill:rgb(230,215,175);stroke:none"/>
<rect width="21" height="127" x="441" y="40" style="fill:rgb(175,230,175);stroke:none"/>
<text x="433" y="575" fill="rgb(0,0,0)" font-family="Arial" font-size="12">65-69</text>
<rect width="21" height="281" x="462" y="279" style="fill:rgb(230,195,195);stroke:none"/>
<rect width="21" height="112" x="462" y="167" style="fill:rgb(230,220,195);stroke:none"/>
<rect width="21" height="127" x="462" y="40" style="fill:rgb(195,230,195);stroke:none"/>
<rect width="21" height="281" x="483" y="279" style="fill:rgb(230,175,175);stroke:none"/>
<rect width="21" height="112" x="483" y="167" style="fill:rgb(230,215,175);stroke:none"/>
<rect width="21" height="127" x="483" y="40" style="fill:rgb(175,230,175);stroke:none"/>
<text x="475" y="575" fill="rgb(0,0,0)" font-family="Arial" font-size="12">75-79</text>
<rect width="21" height="281" x="504" y="279" style="fill:rgb(230,195,195);stroke:none"/>
<rect width="21" height="112" x="504" y="167" style="fill:rgb(230,220,195);stroke:none"/>
<rect width="21" height="127" x="504" y="40" style="fill:rgb(195,230,195);stroke:none"/>
<rect width="21" height="281" x="525" y="279" style="fill:rgb(230,175,175);stroke:none"/>
<rect width="21" height="112" x="525" y="167" style="fill:rgb(230,215,175);stroke:none"/>
<rect width="21" height="127" x="525" y="40" style="fill:rgb(175,230,175);stroke:none"/>
<text x="517" y="575" fill="rgb(0,0,0)" font-family="Arial" font-size="12">85-89</text>
<rect width="21" height="281" x="546" y="279" style="fill:rgb(230,195,195);stroke:none"/>
<rect width="21" height="112" x="546" y="167" style="fill:rgb(230,220,195);stroke:none"/>
<rect width="21" height="127" x="546" y="40" style="fill:rgb(195,230,195);stroke:none"/>
<rect width="21" height="281" x="567" y="279" style="fill:rgb(230,175,175);stroke:none"/>
<rect width="21" height="112" x="567" y="167" style="fill:rgb(230,215,175);stroke:none"/>
<rect width="21" height="127" x="567" y="40" style="fill:rgb(175,230,175);stroke:none"/>
<text x="559" y="575" fill="rgb(0,0,0)" font-family="Arial" font-size="12">95-99</text>
<rect width="21" height="281" x="588" y="279" style="fill:rgb(230,195,195);stroke:none"/>
<rect width="21" height="112" x="588" y="167" style="fill:rgb(230,220,195);stroke:none"/>
<rect width="21" height="127" x="588" y="40" style="fill:rgb(195,230,195);stroke:none"/>
<rect width="21" height="281" x="609" y="279" style="fill:rgb(230,175,175);stroke:none"/>
<rect width="21" height="112" x="609" y="167" style="fill:rgb(230,215,175);stroke:none"/>
<rect width="21" height="127" x="609" y="40" style="fill:rgb(175,230,175);stroke:none"/>
<rect width="21" height="281" x="630" y="279" style="fill:rgb(230,195,195);stroke:none"/>
<rect width="21" height="112" x="630" y="167" style="fill:rgb(230,220,195);stroke:none"/>
<rect width="21" height="127" x="630" y="40" style="fill:rgb(195,230,195);stroke:none"/>
<text x="614" y="575" fill="rgb(0,0,0)" font-family="Arial" font-size="12">110-114</text>
<rect width="21" height="281" x="651" y="279" style="fill:rgb(230,175,175);stroke:none"/>
<rect width="21" height="112" x="651" y="167" style="fill:rgb(230,215,175);stroke:none"/>
<rect width="21" height="127" x="651" y="40" style="fill:rgb(175,230,175);stroke:none"/>
<rect width="21" height="281" x="672" y="279" style="fill:rgb(230,195,195);stroke:none"/>
<rect width="21" height="112" x="672" y="167" style="fill:rgb(230,220,195);stroke:none"/>
<rect width="21" height="127" x="672" y="40" style="fill:rgb(195,230,195);stroke:none"/>
<rect width="21" height="281" x="693" y="279" style="fill:rgb(230,175,175);stroke:none"/>
<rect width="21" height="112" x="693" y="167" style="fill:rgb(230,215,175);stroke:none"/>
<rect width="21" height="127" x="693" y="40" style="fill:rgb(175,230,175);stroke:none"/>
<text x="677" y="575" fill="rgb(0,0,0)" font-family="Arial" font-size="12">125-129</text>
<rect width="21" height="281" x="714" y="279" style="fill:rgb(230,195,195);stroke:none"/>
<rect width="21" height="112" x="714" y="167" style="fill:rgb(230,220,195);stroke:none"/>
<rect width="21" height="127" x="714" y="40" style="fill:rgb(195,230,195);stroke:none"/>
<rect width="21" height="281" x="735" y="279" style="fill:rgb(230,175,175);stroke:none"/>
<rect width="21" height="112" x="735" y="167" style="fill:rgb(230,215,175);stroke:none"/>
<rect width="21" height="127" x="735" y="40" style="fill:rgb(175,230,175);stroke:none"/>
<rect width="21" height="281" x="756" y="279" style="fill:rgb(230,195,195);stroke:none"/>
<rect width="21" height="112" x="756" y="167" style="fill:rgb(230,220,195);stroke:none"/>
<rect width="21" height="127" x="756" y="40" style="fill:rgb(195,230,195);stroke:none"/>
<text x="740" y="575" fill="rgb(0,0,0)" font-family="Arial" font-size="12">140-142</text>
<line x1="21" y1="560" x2="790" y2="560" stroke="rgb(0,0,0)" stroke-width="1"/>
<line x1="21" y1="560" x2="21" y2="40" stroke="rgb(0,0,0)" stroke-width="1"/>
<text x="336" y="595" fill="rgb(0,0,0)" font-family="Arial" font-size="12">Position in read (bp)</text>
<rect width="17" height="0" x="23" y="40" style="fill:rgb(240,240,0);stroke:none"/>
<rect width="17" height="0" x="23" y="40" rx="0" ry="0" style="fill:none;stroke-width:1;stroke:rgb(0,0,0)"/>
<line x1="31" y1="40" x2="31" y2="40" stroke="rgb(0,0,0)" stroke-width="1"/>
<line x1="23" y1="40" x2="40" y2="40" stroke="rgb(0,0,0)" stroke-width="1"/>
<line x1="31" y1="40" x2="31" y2="40" stroke="rgb(0,0,0)" stroke-width="1"/>
<line x1="23" y1="40" x2="40" y2="40" stroke="rgb(0,0,0)" stroke-width="1"/>
<line x1="23" y1="40" x2="40" y2="40" stroke="rgb(200,0,0)" stroke-width="1"/>
<rect width="17" height="0" x="44" y="40" style="fill:rgb(240,240,0);stroke:none"/>
<rect width="17" height="0" x="44" y="40" rx="0" ry="0" style="fill:none;stroke-width:1;stroke:rgb(0,0,0)"/>
<line x1="52" y1="40" x2="52" y2="40" stroke="rgb(0,0,0)" stroke-width="1"/>
<line x1="44" y1="40" x2="61" y2="40" stroke="rgb(0,0,0)" stroke-width="1"/>
<line x1="52" y1="40" x2="52" y2="40" stroke="rgb(0,0,0)" stroke-width="1"/>
<line x1="44" y1="40" x2="61" y2="40" stroke="rgb(0,0,0)" stroke-width="1"/>
<line x1="44" y1="40" x2="61" y2="40" stroke="rgb(200,0,0)" stroke-width="1"/>
<rect width="17" height="0" x="65" y="40" style="fill:rgb(240,240,0);stroke:none"/>
<rect width="17" height="0" x="65" y="40" rx="0" ry="0" style="fill:none;stroke-width:1;stroke:rgb(0,0,0)"/>
<line x1="73" y1="40" x2="73" y2="40" stroke="rgb(0,0,0)" stroke-width="1"/>
<line x1="65" y1="40" x2="82" y2="40" stroke="rgb(0,0,0)" stroke-width="1"/>
<line x1="73" y1="40" x2="73" y2="40" stroke="rgb(0,0,0)" stroke-width="1"/>
<line x1="65" y1="40" x2="82" y2="40" stroke="rgb(0,0,0)" stroke-width="1"/>
<line x1="65" y1="40" x2="82" y2="40" stroke="rgb(200,0,0)" stroke-width="1"/>
<rect width="17" height="0" x="86" y="40" style="fill:rgb(240,240,0);stroke:none"/>
<rect width="17" height="0" x="86" y="40" rx="0" ry="0" style="fill:none;stroke-width:1;stroke:rgb(0,0,0)"/>
<line x1="94" y1="40" x2="94" y2="40" stroke="rgb(0,0,0)" stroke-width="1"/>
<line x1="86" y1="40" x2="103" y2="40" stroke="rgb(0,0,0)" stroke-width="1"/>
<line x1="94" y1="40" x2="94" y2="40" stroke="rgb(0,0,0)" stroke-width="1"/>
<line x1="86" y1="40" x2="103" y2="40" stroke="rgb(0,0,0)" stroke-width="1"/>
<line x1="86" y1="40" x2="103" y2="40" stroke="rgb(200,0,0)" stroke-width="1"/>
<rect width="17" height="0" x="107" y="40" style="fill:rgb(240,240,0);stroke:none"/>
<rect width="17" height="0" x="107" y="40" rx="0" ry="0" style="fill:none;stroke-width:1;stroke:rgb(0,0,0)"/>
<line x1="115" y1="40" x2="115" y2="40" stroke="rgb(0,0,0)" stroke-width="1"/>
<line x1="107" y1="40" x2="124" y2="40" stroke="rgb(0,0,0)" stroke-width="1"/>
<line x1="115" y1="40" x2="115" y2="40" stroke="rgb(0,0,0)" stroke-width="1"/>
<line x1="107" y1="40" x2="124" y2="40" stroke="rgb(0,0,0)" stroke-width="1"/>
<line x1="107" y1="40" x2="124" y2="40" stroke="rgb(200,0,0)" stroke-width="1"/>
<rect width="17" height="0" x="128" y="40" style="fill:rgb(240,240,0);stroke:none"/>
<rect width="17" height="0" x="128" y="40" rx="0" ry="0" style="fill:none;stroke-width:1;stroke:rgb(0,0,0)"/>
<line x1="136" y1="40" x2="136" y2="40" stroke="rgb(0,0,0)" stroke-width="1"/>
<line x1="128" y1="40" x2="145" y2="40" stroke="rgb(0,0,0)" stroke-width="1"/>
<line x1="136" y1="40" x2="136" y2="40" stroke="rgb(0,0,0)" stroke-width="1"/>
<line x1="128" y1="40" x2="145" y2="40" stroke="rgb(0,0,0)" stroke-width="1"/>
<line x1="128" y1="40" x2="145" y2="40" stroke="rgb(200,0,0)" stroke-width="1"/>
<rect width="17" height="0" x="149" y="40" style="fill:rgb(240,240,0);stroke:none"/>
<rect width="17" height="0" x="149" y="40" rx="0" ry="0" style="fill:none;stroke-width:1;stroke:rgb(0,0,0)"/>
<line x1="157" y1="40" x2="157" y2="40" stroke="rgb(0,0,0)" stroke-width="1"/>
<line x1="149" y1="40" x2="166" y2="40" stroke="rgb(0,0,0)" stroke-width="1"/>
<line x1="157" y1="40" x2="157" y2="40" stroke="rgb(0,0,0)" stroke-width="1"/>
<line x1="149" y1="40" x2="166" y2="40" stroke="rgb(0,0,0)" stroke-width="1"/>
<line x1="149" y1="40" x2="166" y2="40" stroke="rgb(200,0,0)" stroke-width="1"/>
<rect width="17" height="0" x="170" y="40" style="fill:rgb(240,240,0);stroke:none"/>
<rect width="17" height="0" x="170" y="40" rx="0" ry="0" style="fill:none;stroke-width:1;stroke:rgb(0,0,0)"/>
<line x1="178" y1="40" x2="178" y2="40" stroke="rgb(0,0,0)" stroke-width="1"/>
<line x1="170" y1="40" x2="187" y2="40" stroke="rgb(0,0,0)" stroke-width="1"/>
<line x1="178" y1="40" x2="178" y2="40" stroke="rgb(0,0,0)" stroke-width="1"/>
<line x1="170" y1="40" x2="187" y2="40" stroke="rgb(0,0,0)" stroke-width="1"/>
<line x1="170" y1="40" x2="187" y2="40" stroke="rgb(200,0,0)" stroke-width="1"/>
<rect width="17" height="0" x="191" y="40" style="fill:rgb(240,240,0);stroke:none"/>
<rect width="17" height="0" x="191" y="40" rx="0" ry="0" style="fill:none;stroke-width:1;stroke:rgb(0,0,0)"/>
<line x1="199" y1="40" x2="199" y2="40" stroke="rgb(0,0,0)" stroke-width="1"/>
<line x1="191" y1="40" x2="208" y2="40" stroke="rgb(0,0,0)" stroke-width="1"/>
<line x1="199" y1="40" x2="199" y2="40" stroke="rgb(0,0,0)" stroke-width="1"/>
<line x1="191" y1="40" x2="208" y2="40" stroke="rgb(0,0,0)" stroke-width="1"/>
<line x1="191" y1="40" x2="208" y2="40" stroke="rgb(200,0,0)" stroke-width="1"/>
<rect width="17" height="0" x="212" y="40" style="fill:rgb(240,240,0);stroke:none"/>
<rect width="17" height="0" x="212" y="40" rx="0" ry="0" style="fill:none;stroke-width:1;stroke:rgb(0,0,0)"/>
<line x1="220" y1="40" x2="220" y2="40" stroke="rgb(0,0,0)" stroke-width="1"/>
<line x1="212" y1="40" x2="229" y2="40" stroke="rgb(0,0,0)" stroke-width="1"/>
<line x1="220" y1="40" x2="220" y2="40" stroke="rgb(0,0,0)" stroke-width="1"/>
<line x1="212" y1="40" x2="229" y2="40" stroke="rgb(0,0,0)" stroke-width="1"/>
<line x1="212" y1="40" x2="229" y2="40" stroke="rgb(200,0,0)" stroke-width="1"/>
<rect width="17" height="0" x="233" y="40" style="fill:rgb(240,240,0);stroke:none"/>
<rect width="17" height="0" x="233" y="40" rx="0" ry="0" style="fill:none;stroke-width:1;stroke:rgb(0,0,0)"/>
<line x1="241" y1="40" x2="241" y2="40" stroke="rgb(0,0,0)" stroke-width="1"/>
<line x1="233" y1="40" x2="250" y2="40" stroke="rgb(0,0,0)" stroke-width="1"/>
<line x1="241" y1="40" x2="241" y2="40" stroke="rgb(0,0,0)" stroke-width="1"/>
<line x1="233" y1="40" x2="250" y2="40" stroke="rgb(0,0,0)" stroke-width="1"/>
<line x1="233" y1="40" x2="250" y2="40" stroke="rgb(200,0,0)" stroke-width="1"/>
<rect width="17" height="0" x="254" y="40" style="fill:rgb(240,240,0);stroke:none"/>
<rect width="17" height="0" x="254" y="40" rx="0" ry="0" style="fill:none;stroke-width:1;stroke:rgb(0,0,0)"/>
<line x1="262" y1="40" x2="262" y2="40" stroke="rgb(0,0,0)" stroke-width="1"/>
<line x1="254" y1="40" x2="271" y2="40" stroke="rgb(0,0,0)" stroke-width="1"/>
<line x1="262" y1="40" x2="262" y2="40" stroke="rgb(0,0,0)" stroke-width="1"/>
<line x1="254" y1="40" x2="271" y2="40" stroke="rgb(0,0,0)" stroke-width="1"/>
<line x1="254" y1="40" x2="271" y2="40" stroke="rgb(200,0,0)" stroke-width="1"/>
<rect width="17" height="0" x="275" y="40" style="fill:rgb(240,240,0);stroke:none"/>
<rect width="17" height="0" x="275" y="40" rx="0" ry="0" style="fill:none;stroke-width:1;stroke:rgb(0,0,0)"/>
<line x1="283" y1="40" x2="283" y2="40" stroke="rgb(0,0,0)" stroke-width="1"/>
<line x1="275" y1="40" x2="292" y2="40" stroke="rgb(0,0,0)" stroke-width="1"/>
<line x1="283" y1="40" x2="283" y2="40" stroke="rgb(0,0,0)" stroke-width="1"/>
<line x1="275" y1="40" x2="292" y2="40" stroke="rgb(0,0,0)" stroke-width="1"/>
<line x1="275" y1="40" x2="292" y2="40" stroke="rgb(200,0,0)" stroke-width="1"/>
<rect width="17" height="0" x="296" y="40" style="fill:rgb(240,240,0);stroke:none"/>
<rect width="17" height="0" x="296" y="40" rx="0" ry="0" style="fill:none;stroke-width:1;stroke:rgb(0,0,0)"/>
<line x1="304" y1="40" x2="304" y2="40" stroke="rgb(0,0,0)" stroke-width="1"/>
<line x1="296" y1="40" x2="313" y2="40" stroke="rgb(0,0,0)" stroke-width="1"/>
<line x1="304" y1="40" x2="304" y2="40" stroke="rgb(0,0,0)" stroke-width="1"/>
<line x1="296" y1="40" x2="313" y2="40" stroke="rgb(0,0,0)" stroke-width="1"/>
<line x1="296" y1="40" x2="313" y2="40" stroke="rgb(200,0,0)" stroke-width="1"/>
<rect width="17" height="0" x="317" y="40" style="fill:rgb(240,240,0);stroke:none"/>
<rect width="17" height="0" x="317" y="40" rx="0" ry="0" style="fill:none;stroke-width:1;stroke:rgb(0,0,0)"/>
<line x1="325" y1="40" x2="325" y2="40" stroke="rgb(0,0,0)" stroke-width="1"/>
<line x1="317" y1="40" x2="334" y2="40" stroke="rgb(0,0,0)" stroke-width="1"/>
<line x1="325" y1="40" x2="325" y2="40" stroke="rgb(0,0,0)" stroke-width="1"/>
<line x1="317" y1="40" x2="334" y2="40" stroke="rgb(0,0,0)" stroke-width="1"/>
<line x1="317" y1="40" x2="334" y2="40" stroke="rgb(200,0,0)" stroke-width="1"/>
<rect width="17" height="0" x="338" y="40" style="fill:rgb(240,240,0);stroke:none"/>
<rect width="17" height="0" x="338" y="40" rx="0" ry="0" style="fill:none;stroke-width:1;stroke:rgb(0,0,0)"/>
<line x1="346" y1="40" x2="346" y2="40" stroke="rgb(0,0,0)" stroke-width="1"/>
<line x1="338" y1="40" x2="355" y2="40" stroke="rgb(0,0,0)" stroke-width="1"/>
<line x1="346" y1="40" x2="346" y2="40" stroke="rgb(0,0,0)" stroke-width="1"/>
<line x1="338" y1="40" x2="355" y2="40" stroke="rgb(0,0,0)" stroke-width="1"/>
<line x1="338" y1="40" x2="355" y2="40" stroke="rgb(200,0,0)" stroke-width="1"/>
<rect width="17" height="0" x="359" y="40" style="fill:rgb(240,240,0);stroke:none"/>
<rect width="17" height="0" x="359" y="40" rx="0" ry="0" style="fill:none;stroke-width:1;stroke:rgb(0,0,0)"/>
<line x1="367" y1="40" x2="367" y2="40" stroke="rgb(0,0,0)" stroke-width="1"/>
<line x1="359" y1="40" x2="376" y2="40" stroke="rgb(0,0,0)" stroke-width="1"/>
<line x1="367" y1="40" x2="367" y2="40" stroke="rgb(0,0,0)" stroke-width="1"/>
<line x1="359" y1="40" x2="376" y2="40" stroke="rgb(0,0,0)" stroke-width="1"/>
<line x1="359" y1="40" x2="376" y2="40" stroke="rgb(200,0,0)" stroke-width="1"/>
<rect width="17" height="0" x="380" y="40" style="fill:rgb(240,240,0);stroke:none"/>
<rect width="17" height="0" x="380" y="40" rx="0" ry="0" style="fill:none;stroke-width:1;stroke:rgb(0,0,0)"/>
<line x1="388" y1="40" x2="388" y2="40" stroke="rgb(0,0,0)" stroke-width="1"/>
<line x1="380" y1="40" x2="397" y2="40" stroke="rgb(0,0,0)" stroke-width="1"/>
<line x1="388" y1="40" x2="388" y2="40" stroke="rgb(0,0,0)" stroke-width="1"/>
<line x1="380" y1="40" x2="397" y2="40" stroke="rgb(0,0,0)" stroke-width="1"/>
<line x1="380" y1="40" x2="397" y2="40" stroke="rgb(200,0,0)" stroke-width="1"/>
<rect width="17" height="0" x="401" y="40" style="fill:rgb(240,240,0);stroke:none"/>
<rect width="17" height="0" x="401" y="40" rx="0" ry="0" style="fill:none;stroke-width:1;stroke:rgb(0,0,0)"/>
<line x1="409" y1="40" x2="409" y2="40" stroke="rgb(0,0,0)" stroke-width="1"/>
<line x1="401" y1="40" x2="418" y2="40" stroke="rgb(0,0,0)" stroke-width="1"/>
<line x1="409" y1="40" x2="409" y2="40" stroke="rgb(0,0,0)" stroke-width="1"/>
<line x1="401" y1="40" x2="418" y2="40" stroke="rgb(0,0,0)" stroke-width="1"/>
<line x1="401" y1="40" x2="418" y2="40" stroke="rgb(200,0,0)" stroke-width="1"/>
<rect width="17" height="0" x="422" y="40" style="fill:rgb(240,240,0);stroke:none"/>
<rect width="17" height="0" x="422" y="40" rx="0" ry="0" style="fill:none;stroke-width:1;stroke:rgb(0,0,0)"/>
<line x1="430" y1="40" x2="430" y2="40" stroke="rgb(0,0,0)" stroke-width="1"/>
<line x1="422" y1="40" x2="439" y2="40" stroke="rgb(0,0,0)" stroke-width="1"/>
<line x1="430" y1="40" x2="430" y2="40" stroke="rgb(0,0,0)" stroke-width="1"/>
<line x1="422" y1="40" x2="439" y2="40" stroke="rgb(0,0,0)" stroke-width="1"/>
<line x1="422" y1="40" x2="439" y2="40" stroke="rgb(200,0,0)" stroke-width="1"/>
<rect width="17" height="0" x="443" y="40" style="fill:rgb(240,240,0);stroke:none"/>
<rect width="17" height="0" x="443" y="40" rx="0" ry="0" style="fill:none;stroke-width:1;stroke:rgb(0,0,0)"/>
<line x1="451" y1="40" x2="451" y2="40" stroke="rgb(0,0,0)" stroke-width="1"/>
<line x1="443" y1="40" x2="460" y2="40" stroke="rgb(0,0,0)" stroke-width="1"/>
<line x1="451" y1="40" x2="451" y2="40" stroke="rgb(0,0,0)" stroke-width="1"/>
<line x1="443" y1="40" x2="460" y2="40" stroke="rgb(0,0,0)" stroke-width="1"/>
<line x1="443" y1="40" x2="460" y2="40" stroke="rgb(200,0,0)" stroke-width="1"/>
<rect width="17" height="0" x="464" y="40" style="fill:rgb(240,240,0);stroke:none"/>
<rect width="17" height="0" x="464" y="40" rx="0" ry="0" style="fill:none;stroke-width:1;stroke:rgb(0,0,0)"/>
<line x1="472" y1="40" x2="472" y2="40" stroke="rgb(0,0,0)" stroke-width="1"/>
<line x1="464" y1="40" x2="481" y2="40" stroke="rgb(0,0,0)" stroke-width="1"/>
<line x1="472" y1="40" x2="472" y2="40" stroke="rgb(0,0,0)" stroke-width="1"/>
<line x1="464" y1="40" x2="481" y2="40" stroke="rgb(0,0,0)" stroke-width="1"/>
<line x1="464" y1="40" x2="481" y2="40" stroke="rgb(200,0,0)" stroke-width="1"/>
<rect width="17" height="0" x="485" y="40" style="fill:rgb(240,240,0);stroke:none"/>
<rect width="17" height="0" x="485" y="40" rx="0" ry="0" style="fill:none;stroke-width:1;stroke:rgb(0,0,0)"/>
<line x1="493" y1="40" x2="493" y2="40" stroke="rgb(0,0,0)" stroke-width="1"/>
<line x1="485" y1="40" x2="502" y2="40" stroke="rgb(0,0,0)" stroke-width="1"/>
<line x1="493" y1="40" x2="493" y2="40" stroke="rgb(0,0,0)" stroke-width="1"/>
<line x1="485" y1="40" x2="502" y2="40" stroke="rgb(0,0,0)" stroke-width="1"/>
<line x1="485" y1="40" x2="502" y2="40" stroke="rgb(200,0,0)" stroke-width="1"/>
<rect width="17" height="0" x="506" y="40" style="fill:rgb(240,240,0);stroke:none"/>
<rect width="17" height="0" x="506" y="40" rx="0" ry="0" style="fill:none;stroke-width:1;stroke:rgb(0,0,0)"/>
<line x1="514" y1="40" x2="514" y2="40" stroke="rgb(0,0,0)" stroke-width="1"/>
<line x1="506" y1="40" x2="523" y2="40" stroke="rgb(0,0,0)" stroke-width="1"/>
<line x1="514" y1="40" x2="514" y2="40" stroke="rgb(0,0,0)" stroke-width="1"/>
<line x1="506" y1="40" x2="523" y2="40" stroke="rgb(0,0,0)" stroke-width="1"/>
<line x1="506" y1="40" x2="523" y2="40" stroke="rgb(200,0,0)" stroke-width="1"/>
<rect width="17" height="0" x="527" y="40" style="fill:rgb(240,240,0);stroke:none"/>
<rect width="17" height="0" x="527" y="40" rx="0" ry="0" style="fill:none;stroke-width:1;stroke:rgb(0,0,0)"/>
<line x1="535" y1="40" x2="535" y2="40" stroke="rgb(0,0,0)" stroke-width="1"/>
<line x1="527" y1="40" x2="544" y2="40" stroke="rgb(0,0,0)" stroke-width="1"/>
<line x1="535" y1="40" x2="535" y2="40" stroke="rgb(0,0,0)" stroke-width="1"/>
<line x1="527" y1="40" x2="544" y2="40" stroke="rgb(0,0,0)" stroke-width="1"/>
<line x1="527" y1="40" x2="544" y2="40" stroke="rgb(200,0,0)" stroke-width="1"/>
<rect width="17" height="0" x="548" y="40" style="fill:rgb(240,240,0);stroke:none"/>
<rect width="17" height="0" x="548" y="40" rx="0" ry="0" style="fill:none;stroke-width:1;stroke:rgb(0,0,0)"/>
<line x1="556" y1="40" x2="556" y2="40" stroke="rgb(0,0,0)" stroke-width="1"/>
<line x1="548" y1="40" x2="565" y2="40" stroke="rgb(0,0,0)" stroke-width="1"/>
<line x1="556" y1="40" x2="556" y2="40" stroke="rgb(0,0,0)" stroke-width="1"/>
<line x1="548" y1="40" x2="565" y2="40" stroke="rgb(0,0,0)" stroke-width="1"/>
<line x1="548" y1="40" x2="565" y2="40" stroke="rgb(200,0,0)" stroke-width="1"/>
<rect width="17" height="0" x="569" y="40" style="fill:rgb(240,240,0);stroke:none"/>
<rect width="17" height="0" x="569" y="40" rx="0" ry="0" style="fill:none;stroke-width:1;stroke:rgb(0,0,0)"/>
<line x1="577" y1="40" x2="577" y2="40" stroke="rgb(0,0,0)" stroke-width="1"/>
<line x1="569" y1="40" x2="586" y2="40" stroke="rgb(0,0,0)" stroke-width="1"/>
<line x1="577" y1="40" x2="577" y2="40" stroke="rgb(0,0,0)" stroke-width="1"/>
<line x1="569" y1="40" x2="586" y2="40" stroke="rgb(0,0,0)" stroke-width="1"/>
<line x1="569" y1="40" x2="586" y2="40" stroke="rgb(200,0,0)" stroke-width="1"/>
<rect width="17" height="0" x="590" y="40" style="fill:rgb(240,240,0);stroke:none"/>
<rect width="17" height="0" x="590" y="40" rx="0" ry="0" style="fill:none;stroke-width:1;stroke:rgb(0,0,0)"/>
<line x1="598" y1="40" x2="598" y2="40" stroke="rgb(0,0,0)" stroke-width="1"/>
<line x1="590" y1="40" x2="607" y2="40" stroke="rgb(0,0,0)" stroke-width="1"/>
<line x1="598" y1="40" x2="598" y2="40" stroke="rgb(0,0,0)" stroke-width="1"/>
<line x1="590" y1="40" x2="607" y2="40" stroke="rgb(0,0,0)" stroke-width="1"/>
<line x1="590" y1="40" x2="607" y2="40" stroke="rgb(200,0,0)" stroke-width="1"/>
<rect width="17" height="0" x="611" y="40" style="fill:rgb(240,240,0);stroke:none"/>
<rect width="17" height="0" x="611" y="40" rx="0" ry="0" style="fill:none;stroke-width:1;stroke:rgb(0,0,0)"/>
<line x1="619" y1="40" x2="619" y2="40" stroke="rgb(0,0,0)" stroke-width="1"/>
<line x1="611" y1="40" x2="628" y2="40" stroke="rgb(0,0,0)" stroke-width="1"/>
<line x1="619" y1="40" x2="619" y2="40" stroke="rgb(0,0,0)" stroke-width="1"/>
<line x1="611" y1="40" x2="628" y2="40" stroke="rgb(0,0,0)" stroke-width="1"/>
<line x1="611" y1="40" x2="628" y2="40" stroke="rgb(200,0,0)" stroke-width="1"/>
<rect width="17" height="0" x="632" y="40" style="fill:rgb(240,240,0);stroke:none"/>
<rect width="17" height="0" x="632" y="40" rx="0" ry="0" style="fill:none;stroke-width:1;stroke:rgb(0,0,0)"/>
<line x1="640" y1="40" x2="640" y2="40" stroke="rgb(0,0,0)" stroke-width="1"/>
<line x1="632" y1="40" x2="649" y2="40" stroke="rgb(0,0,0)" stroke-width="1"/>
<line x1="640" y1="40" x2="640" y2="40" stroke="rgb(0,0,0)" stroke-width="1"/>
<line x1="632" y1="40" x2="649" y2="40" stroke="rgb(0,0,0)" stroke-width="1"/>
<line x1="632" y1="40" x2="649" y2="40" stroke="rgb(200,0,0)" stroke-width="1"/>
<rect width="17" height="0" x="653" y="40" style="fill:rgb(240,240,0);stroke:none"/>
<rect width="17" height="0" x="653" y="40" rx="0" ry="0" style="fill:none;stroke-width:1;stroke:rgb(0,0,0)"/>
<line x1="661" y1="40" x2="661" y2="40" stroke="rgb(0,0,0)" stroke-width="1"/>
<line x1="653" y1="40" x2="670" y2="40" stroke="rgb(0,0,0)" stroke-width="1"/>
<line x1="661" y1="40" x2="661" y2="40" stroke="rgb(0,0,0)" stroke-width="1"/>
<line x1="653" y1="40" x2="670" y2="40" stroke="rgb(0,0,0)" stroke-width="1"/>
<line x1="653" y1="40" x2="670" y2="40" stroke="rgb(200,0,0)" stroke-width="1"/>
<rect width="17" height="0" x="674" y="40" style="fill:rgb(240,240,0);stroke:none"/>
<rect width="17" height="0" x="674" y="40" rx="0" ry="0" style="fill:none;stroke-width:1;stroke:rgb(0,0,0)"/>
<line x1="682" y1="40" x2="682" y2="40" stroke="rgb(0,0,0)" stroke-width="1"/>
<line x1="674" y1="40" x2="691" y2="40" stroke="rgb(0,0,0)" stroke-width="1"/>
<line x1="682" y1="40" x2="682" y2="40" stroke="rgb(0,0,0)" stroke-width="1"/>
<line x1="674" y1="40" x2="691" y2="40" stroke="rgb(0,0,0)" stroke-width="1"/>
<line x1="674" y1="40" x2="691" y2="40" stroke="rgb(200,0,0)" stroke-width="1"/>
<rect width="17" height="0" x="695" y="40" style="fill:rgb(240,240,0);stroke:none"/>
<rect width="17" height="0" x="695" y="40" rx="0" ry="0" style="fill:none;stroke-width:1;stroke:rgb(0,0,0)"/>
<line x1="703" y1="40" x2="703" y2="40" stroke="rgb(0,0,0)" stroke-width="1"/>
<line x1="695" y1="40" x2="712" y2="40" stroke="rgb(0,0,0)" stroke-width="1"/>
<line x1="703" y1="40" x2="703" y2="40" stroke="rgb(0,0,0)" stroke-width="1"/>
<line x1="695" y1="40" x2="712" y2="40" stroke="rgb(0,0,0)" stroke-width="1"/>
<line x1="695" y1="40" x2="712" y2="40" stroke="rgb(200,0,0)" stroke-width="1"/>
<rect width="17" height="0" x="716" y="40" style="fill:rgb(240,240,0);stroke:none"/>
<rect width="17" height="0" x="716" y="40" rx="0" ry="0" style="fill:none;stroke-width:1;stroke:rgb(0,0,0)"/>
<line x1="724" y1="40" x2="724" y2="40" stroke="rgb(0,0,0)" stroke-width="1"/>
<line x1="716" y1="40" x2="733" y2="40" stroke="rgb(0,0,0)" stroke-width="1"/>
<line x1="724" y1="40" x2="724" y2="40" stroke="rgb(0,0,0)" stroke-width="1"/>
<line x1="716" y1="40" x2="733" y2="40" stroke="rgb(0,0,0)" stroke-width="1"/>
<line x1="716" y1="40" x2="733" y2="40" stroke="rgb(200,0,0)" stroke-width="1"/>
<rect width="17" height="0" x="737" y="40" style="fill:rgb(240,240,0);stroke:none"/>
<rect width="17" height="0" x="737" y="40" rx="0" ry="0" style="fill:none;stroke-width:1;stroke:rgb(0,0,0)"/>
<line x1="745" y1="40" x2="745" y2="40" stroke="rgb(0,0,0)" stroke-width="1"/>
<line x1="737" y1="40" x2="754" y2="40" stroke="rgb(0,0,0)" stroke-width="1"/>
<line x1="745" y1="40" x2="745" y2="40" stroke="rgb(0,0,0)" stroke-width="1"/>
<line x1="737" y1="40" x2="754" y2="40" stroke="rgb(0,0,0)" stroke-width="1"/>
<line x1="737" y1="40" x2="754" y2="40" stroke="rgb(200,0,0)" stroke-width="1"/>
<rect width="17" height="0" x="758" y="40" style="fill:rgb(240,240,0);stroke:none"/>
<rect width="17" height="0" x="758" y="40" rx="0" ry="0" style="fill:none;stroke-width:1;stroke:rgb(0,0,0)"/>
<line x1="766" y1="40" x2="766" y2="40" stroke="rgb(0,0,0)" stroke-width="1"/>
<line x1="758" y1="40" x2="775" y2="40" stroke="rgb(0,0,0)" stroke-width="1"/>
<line x1="766" y1="40" x2="766" y2="40" stroke="rgb(0,0,0)" stroke-width="1"/>
<line x1="758" y1="40" x2="775" y2="40" stroke="rgb(0,0,0)" stroke-width="1"/>
<line x1="758" y1="40" x2="775" y2="40" stroke="rgb(200,0,0)" stroke-width="1"/>
<line x1="31" y1="48" x2="52" y2="47" stroke="rgb(0,0,200)" stroke-width="1"/>
<line x1="52" y1="47" x2="73" y2="47" stroke="rgb(0,0,200)" stroke-width="1"/>
<line x1="73" y1="47" x2="94" y2="48" stroke="rgb(0,0,200)" stroke-width="1"/>
<line x1="94" y1="48" x2="115" y2="48" stroke="rgb(0,0,200)" stroke-width="1"/>
<line x1="115" y1="48" x2="136" y2="48" stroke="rgb(0,0,200)" stroke-width="1"/>
<line x1="136" y1="48" x2="157" y2="48" stroke="rgb(0,0,200)" stroke-width="1"/>
<line x1="157" y1="48" x2="178" y2="48" stroke="rgb(0,0,200)" stroke-width="1"/>
<line x1="178" y1="48" x2="199" y2="48" stroke="rgb(0,0,200)" stroke-width="1"/>
<line x1="199" y1="48" x2="220" y2="49" stroke="rgb(0,0,200)" stroke-width="1"/>
<line x1="220" y1="49" x2="241" y2="49" stroke="rgb(0,0,200)" stroke-width="1"/>
<line x1="241" y1="49" x2="262" y2="50" stroke="rgb(0,0,200)" stroke-width="1"/>
<line x1="262" y1="50" x2="283" y2="51" stroke="rgb(0,0,200)" stroke-width="1"/>
<line x1="283" y1="51" x2="304" y2="51" stroke="rgb(0,0,200)" stroke-width="1"/>
<line x1="304" y1="51" x2="325" y2="51" stroke="rgb(0,0,200)" stroke-width="1"/>
<line x1="325" y1="51" x2="346" y2="52" stroke="rgb(0,0,200)" stroke-width="1"/>
<line x1="346" y1="52" x2="367" y2="52" stroke="rgb(0,0,200)" stroke-width="1"/>
<line x1="367" y1="52" x2="388" y2="53" stroke="rgb(0,0,200)" stroke-width="1"/>
<line x1="388" y1="53" x2="409" y2="53" stroke="rgb(0,0,200)" stroke-width="1"/>
<line x1="409" y1="53" x2="430" y2="53" stroke="rgb(0,0,200)" stroke-width="1"/>
<line x1="430" y1="53" x2="451" y2="53" stroke="rgb(0,0,200)" stroke-width="1"/>
<line x1="451" y1="53" x2="472" y2="54" stroke="rgb(0,0,200)" stroke-width="1"/>
<line x1="472" y1="54" x2="493" y2="54" stroke="rgb(0,0,200)" stroke-width="1"/>
<line x1="493" y1="54" x2="514" y2="55" stroke="rgb(0,0,200)" stroke-width="1"/>
<line x1="514" y1="55" x2="535" y2="55" stroke="rgb(0,0,200)" stroke-width="1"/>
<line x1="535" y1="55" x2="556" y2="55" stroke="rgb(0,0,200)" stroke-width="1"/>
<line x1="556" y1="55" x2="577" y2="55" stroke="rgb(0,0,200)" stroke-width="1"/>
<line x1="577" y1="55" x2="598" y2="56" stroke="rgb(0,0,200)" stroke-width="1"/>
<line x1="598" y1="56" x2="619" y2="56" stroke="rgb(0,0,200)" stroke-width="1"/>
<line x1="619" y1="56" x2="640" y2="56" stroke="rgb(0,0,200)" stroke-width="1"/>
<line x1="640" y1="56" x2="661" y2="56" stroke="rgb(0,0,200)" stroke-width="1"/>
<line x1="661" y1="56" x2="682" y2="57" stroke="rgb(0,0,200)" stroke-width="1"/>
<line x1="682" y1="57" x2="703" y2="58" stroke="rgb(0,0,200)" stroke-width="1"/>
<line x1="703" y1="58" x2="724" y2="58" stroke="rgb(0,0,200)" stroke-width="1"/>
<line x1="724" y1="58" x2="745" y2="60" stroke="rgb(0,0,200)" stroke-width="1"/>
<line x1="745" y1="60" x2="766" y2="56" stroke="rgb(0,0,200)" stroke-width="1"/>
</svg>
