<?xml version="1.0" standalone="no"?>
<!DOCTYPE svg PUBLIC "-//W3C//DTD SVG 1.1//EN" "http://www.w3.org/Graphics/SVG/1.1/DTD/svg11.dtd">
<svg width="800" height="600" version="1.1" xmlns="http://www.w3.org/2000/svg">
<rect width="800" height="600" x="0" y="0" style="fill:rgb(238,238,238);stroke:none"/>
<rect width="800" height="600" x="0" y="0" style="fill:rgb(255,255,255);stroke:none"/>
<text x="2" y="566" fill="rgb(0,0,0)" font-family="Arial" font-size="12">0</text>
<text x="2" y="474" fill="rgb(0,0,0)" font-family="Arial" font-size="12">5000000</text>
<text x="2" y="382" fill="rgb(0,0,0)" font-family="Arial" font-size="12">1.0E7</text>
<text x="2" y="289" fill="rgb(0,0,0)" font-family="Arial" font-size="12">1.5E7</text>
<text x="2" y="197" fill="rgb(0,0,0)" font-family="Arial" font-size="12">2.0E7</text>
<text x="2" y="104" fill="rgb(0,0,0)" font-family="Arial" font-size="12">2.5E7</text>
<text x="286" y="30" fill="rgb(0,0,0)" font-family="Arial" font-size="12">Quality score distribution over all sequences</text>
<line x1="61" y1="560" x2="790" y2="560" stroke="rgb(0,0,0)" stroke-width="1"/>
<line x1="61" y1="560" x2="61" y2="40" stroke="rgb(0,0,0)" stroke-width="1"/>
<text x="281" y="595" fill="rgb(0,0,0)" font-family="Arial" font-size="12">Mean Sequence Quality (Phred Score)</text>
<text x="73" y="575" fill="rgb(0,0,0)" font-family="Arial" font-size="12">20</text>
<rect width="40" height="520" x="101" y="40" style="fill:rgb(230,230,230);stroke:none"/>
<text x="113" y="575" fill="rgb(0,0,0)" font-family="Arial" font-size="12">21</text>
<text x="153" y="575" fill="rgb(0,0,0)" font-family="Arial" font-size="12">22</text>
<rect width="40" height="520" x="181" y="40" style="fill:rgb(230,230,230);stroke:none"/>
<text x="193" y="575" fill="rgb(0,0,0)" font-family="Arial" font-size="12">23</text>
<text x="233" y="575" fill="rgb(0,0,0)" font-family="Arial" font-size="12">24</text>
<rect width="40" height="520" x="261" y="40" style="fill:rgb(230,230,230);stroke:none"/>
<text x="273" y="575" fill="rgb(0,0,0)" font-family="Arial" font-size="12">25</text>
<text x="313" y="575" fill="rgb(0,0,0)" font-family="Arial" font-size="12">26</text>
<rect width="40" height="520" x="341" y="40" style="fill:rgb(230,230,230);stroke:none"/>
<text x="353" y="575" fill="rgb(0,0,0)" font-family="Arial" font-size="12">27</text>
<text x="393" y="575" fill="rgb(0,0,0)" font-family="Arial" font-size="12">28</text>
<rect width="40" height="520" x="421" y="40" style="fill:rgb(230,230,230);stroke:none"/>
<text x="433" y="575" fill="rgb(0,0,0)" font-family="Arial" font-size="12">29</text>
<text x="473" y="575" fill="rgb(0,0,0)" font-family="Arial" font-size="12">30</text>
<rect width="40" height="520" x="501" y="40" style="fill:rgb(230,230,230);stroke:none"/>
<text x="513" y="575" fill="rgb(0,0,0)" font-family="Arial" font-size="12">31</text>
<text x="553" y="575" fill="rgb(0,0,0)" font-family="Arial" font-size="12">32</text>
<rect width="40" height="520" x="581" y="40" style="fill:rgb(230,230,230);stroke:none"/>
<text x="593" y="575" fill="rgb(0,0,0)" font-family="Arial" font-size="12">33</text>
<text x="633" y="575" fill="rgb(0,0,0)" font-family="Arial" font-size="12">34</text>
<rect width="40" height="520" x="661" y="40" style="fill:rgb(230,230,230);stroke:none"/>
<text x="673" y="575" fill="rgb(0,0,0)" font-family="Arial" font-size="12">35</text>
<text x="713" y="575" fill="rgb(0,0,0)" font-family="Arial" font-size="12">36</text>
<rect width="40" height="520" x="741" y="40" style="fill:rgb(230,230,230);stroke:none"/>
<text x="753" y="575" fill="rgb(0,0,0)" font-family="Arial" font-size="12">37</text>
<line x1="61" y1="560" x2="790" y2="560" stroke="rgb(180,180,180)" stroke-width="1"/>
<line x1="61" y1="468" x2="790" y2="468" stroke="rgb(180,180,180)" stroke-width="1"/>
<line x1="61" y1="376" x2="790" y2="376" stroke="rgb(180,180,180)" stroke-width="1"/>
<line x1="61" y1="283" x2="790" y2="283" stroke="rgb(180,180,180)" stroke-width="1"/>
<line x1="61" y1="191" x2="790" y2="191" stroke="rgb(180,180,180)" stroke-width="1"/>
<line x1="61" y1="98" x2="790" y2="98" stroke="rgb(180,180,180)" stroke-width="1"/>
<line x1="81" y1="560" x2="121" y2="560" stroke="rgb(136,34,85)" stroke-width="1"/>
<line x1="121" y1="560" x2="161" y2="560" stroke="rgb(136,34,85)" stroke-width="1"/>
<line x1="161" y1="560" x2="201" y2="560" stroke="rgb(136,34,85)" stroke-width="1"/>
<line x1="201" y1="560" x2="241" y2="560" stroke="rgb(136,34,85)" stroke-width="1"/>
<line x1="241" y1="560" x2="281" y2="560" stroke="rgb(136,34,85)" stroke-width="1"/>
<line x1="281" y1="560" x2="321" y2="559" stroke="rgb(136,34,85)" stroke-width="1"/>
<line x1="321" y1="559" x2="361" y2="558" stroke="rgb(136,34,85)" stroke-width="1"/>
<line x1="361" y1="558" x2="401" y2="556" stroke="rgb(136,34,85)" stroke-width="1"/>
<line x1="401" y1="556" x2="441" y2="554" stroke="rgb(136,34,85)" stroke-width="1"/>
<line x1="441" y1="554" x2="481" y2="551" stroke="rgb(136,34,85)" stroke-width="1"/>
<line x1="481" y1="551" x2="521" y2="548" stroke="rgb(136,34,85)" stroke-width="1"/>
<line x1="521" y1="548" x2="561" y2="544" stroke="rgb(136,34,85)" stroke-width="1"/>
<line x1="561" y1="544" x2="601" y2="537" stroke="rgb(136,34,85)" stroke-width="1"/>
<line x1="601" y1="537" x2="641" y2="525" stroke="rgb(136,34,85)" stroke-width="1"/>
<line x1="641" y1="525" x2="681" y2="487" stroke="rgb(136,34,85)" stroke-width="1"/>
<line x1="681" y1="487" x2="721" y2="40" stroke="rgb(136,34,85)" stroke-width="1"/>
<line x1="721" y1="40" x2="761" y2="472" stroke="rgb(136,34,85)" stroke-width="1"/>
<rect width="183" height="23" x="607" y="40" style="fill:rgb(255,255,255);stroke:none"/>
<rect width="183" height="23" x="607" y="40" rx="0" ry="0" style="fill:none;stroke-width:1;stroke:rgb(192,192,192)"/>
<text x="610" y="55" fill="rgb(136,34,85)" font-family="Arial" font-size="12" font-weight="bold">Average Quality per read</text>
</svg>
